<?xml version="1.0" encoding="us-ascii" standalone="no"?><svg xmlns="http://www.w3.org/2000/svg" xmlns:xlink="http://www.w3.org/1999/xlink" contentStyleType="text/css" height="766px" preserveAspectRatio="none" style="width:1097px;height:766px;background:#FFFFFF;" version="1.1" viewBox="0 0 1097 766" width="1097px" zoomAndPan="magnify"><defs/><g><text fill="#000000" font-family="Arial" font-size="14" font-weight="bold" lengthAdjust="spacing" textLength="351" x="365.5" y="24.9659">Diagrama de componentes da solu&#231;&#227;o de software</text><!--cluster app--><g id="cluster_app"><path d="M16.5,52.0679 L205.5,52.0679 A3.75,3.75 0 0 1 208,54.5679 L215,77.1358 L843,77.1358 A2.5,2.5 0 0 1 845.5,79.6358 L845.5,681.5679 A2.5,2.5 0 0 1 843,684.0679 L16.5,684.0679 A2.5,2.5 0 0 1 14,681.5679 L14,54.5679 A2.5,2.5 0 0 1 16.5,52.0679 " fill="#F8FAFC" style="stroke:#64748B;stroke-width:1.5;"/><line style="stroke:#64748B;stroke-width:1.5;" x1="14" x2="215" y1="77.1358" y2="77.1358"/><text fill="#0F172A" font-family="Arial" font-size="14" font-weight="bold" lengthAdjust="spacing" textLength="188" x="18" y="69.0339">Aplica&#231;&#227;o de software local</text></g><!--cluster backend--><g id="cluster_backend"><path d="M24.5,244.0679 L267.5,244.0679 A3.75,3.75 0 0 1 270,246.5679 L277,269.1358 L757,269.1358 A2.5,2.5 0 0 1 759.5,271.6358 L759.5,673.5679 A2.5,2.5 0 0 1 757,676.0679 L24.5,676.0679 A2.5,2.5 0 0 1 22,673.5679 L22,246.5679 A2.5,2.5 0 0 1 24.5,244.0679 " fill="#F8FAFC" style="stroke:#64748B;stroke-width:1.5;"/><line style="stroke:#64748B;stroke-width:1.5;" x1="22" x2="277" y1="269.1358" y2="269.1358"/><text fill="#0F172A" font-family="Arial" font-size="14" font-weight="bold" lengthAdjust="spacing" textLength="242" x="26" y="261.0339">Backend monol&#237;tico &#8212; Spring Boot</text></g><!--entity robot--><g id="elem_robot"><rect fill="#F5F7FF" height="68.1358" rx="2.5" ry="2.5" style="stroke:#4054A5;stroke-width:0.5;" width="173" x="918" y="692.0679"/><rect fill="#F5F7FF" height="10" style="stroke:#4054A5;stroke-width:0.5;" width="15" x="1071" y="697.0679"/><rect fill="#F5F7FF" height="2" style="stroke:#4054A5;stroke-width:0.5;" width="4" x="1069" y="699.0679"/><rect fill="#F5F7FF" height="2" style="stroke:#4054A5;stroke-width:0.5;" width="4" x="1069" y="703.0679"/><text fill="#172554" font-family="Arial" font-size="14" lengthAdjust="spacing" textLength="106" x="933" y="727.0339">Rob&#244; Rato Cego</text><text fill="#172554" font-family="Arial" font-size="14" lengthAdjust="spacing" textLength="133" x="933" y="746.1018">Sistema embarcado</text></g><!--entity broker--><g id="elem_broker"><rect fill="#F5F7FF" height="68.1358" rx="2.5" ry="2.5" style="stroke:#4054A5;stroke-width:0.5;" width="203" x="641" y="692.0679"/><rect fill="#F5F7FF" height="10" style="stroke:#4054A5;stroke-width:0.5;" width="15" x="824" y="697.0679"/><rect fill="#F5F7FF" height="2" style="stroke:#4054A5;stroke-width:0.5;" width="4" x="822" y="699.0679"/><rect fill="#F5F7FF" height="2" style="stroke:#4054A5;stroke-width:0.5;" width="4" x="822" y="703.0679"/><text fill="#172554" font-family="Arial" font-size="14" lengthAdjust="spacing" textLength="119" x="656" y="727.0339">Eclipse Mosquitto</text><text fill="#172554" font-family="Arial" font-size="14" lengthAdjust="spacing" textLength="163" x="656" y="746.1018">Broker MQTT em Docker</text></g><!--entity frontend--><g id="elem_frontend"><rect fill="#F5F7FF" height="68.1358" rx="2.5" ry="2.5" style="stroke:#4054A5;stroke-width:0.5;" width="190" x="647.5" y="82.0679"/><rect fill="#F5F7FF" height="10" style="stroke:#4054A5;stroke-width:0.5;" width="15" x="817.5" y="87.0679"/><rect fill="#F5F7FF" height="2" style="stroke:#4054A5;stroke-width:0.5;" width="4" x="815.5" y="89.0679"/><rect fill="#F5F7FF" height="2" style="stroke:#4054A5;stroke-width:0.5;" width="4" x="815.5" y="93.0679"/><text fill="#172554" font-family="Arial" font-size="14" lengthAdjust="spacing" textLength="102" x="662.5" y="117.0339">Frontend React</text><text fill="#172554" font-family="Arial" font-size="14" lengthAdjust="spacing" textLength="150" x="662.5" y="136.1018">Navegador do usu&#225;rio</text></g><!--entity database--><g id="elem_database"><path d="M665.5,178.5679 C665.5,168.5679 742.5,168.5679 742.5,168.5679 C742.5,168.5679 819.5,168.5679 819.5,178.5679 L819.5,225.7038 C819.5,235.7038 742.5,235.7038 742.5,235.7038 C742.5,235.7038 665.5,235.7038 665.5,225.7038 L665.5,178.5679 " fill="#F1F1F1" style="stroke:#181818;stroke-width:0.5;"/><path d="M665.5,178.5679 C665.5,188.5679 742.5,188.5679 742.5,188.5679 C742.5,188.5679 819.5,188.5679 819.5,178.5679 " fill="none" style="stroke:#181818;stroke-width:0.5;"/><text fill="#000000" font-family="Arial" font-size="14" lengthAdjust="spacing" textLength="107" x="675.5" y="207.5339">Banco de dados</text><text fill="#000000" font-family="Arial" font-size="14" lengthAdjust="spacing" textLength="134" x="675.5" y="226.6018">Tecnologia a definir</text></g><!--entity rest--><g id="elem_rest"><rect fill="#F5F7FF" height="68.1358" rx="2.5" ry="2.5" style="stroke:#4054A5;stroke-width:0.5;" width="134" x="79.5" y="351.0679"/><rect fill="#F5F7FF" height="10" style="stroke:#4054A5;stroke-width:0.5;" width="15" x="193.5" y="356.0679"/><rect fill="#F5F7FF" height="2" style="stroke:#4054A5;stroke-width:0.5;" width="4" x="191.5" y="358.0679"/><rect fill="#F5F7FF" height="2" style="stroke:#4054A5;stroke-width:0.5;" width="4" x="191.5" y="362.0679"/><text fill="#172554" font-family="Arial" font-size="14" lengthAdjust="spacing" textLength="94" x="94.5" y="386.0339">RunController</text><text fill="#172554" font-family="Arial" font-size="14" lengthAdjust="spacing" textLength="59" x="94.5" y="405.1018">API REST</text></g><!--entity runservice--><g id="elem_runservice"><rect fill="#F5F7FF" height="68.1358" rx="2.5" ry="2.5" style="stroke:#4054A5;stroke-width:0.5;" width="176" x="330" y="514.0679"/><rect fill="#F5F7FF" height="10" style="stroke:#4054A5;stroke-width:0.5;" width="15" x="486" y="519.0679"/><rect fill="#F5F7FF" height="2" style="stroke:#4054A5;stroke-width:0.5;" width="4" x="484" y="521.0679"/><rect fill="#F5F7FF" height="2" style="stroke:#4054A5;stroke-width:0.5;" width="4" x="484" y="525.0679"/><text fill="#172554" font-family="Arial" font-size="14" lengthAdjust="spacing" textLength="75" x="345" y="549.0339">RunService</text><text fill="#172554" font-family="Arial" font-size="14" lengthAdjust="spacing" textLength="136" x="345" y="568.1018">Execu&#231;&#227;o e hist&#243;rico</text></g><!--entity telemetry--><g id="elem_telemetry"><rect fill="#F5F7FF" height="68.1358" rx="2.5" ry="2.5" style="stroke:#4054A5;stroke-width:0.5;" width="236" x="300" y="428.0679"/><rect fill="#F5F7FF" height="10" style="stroke:#4054A5;stroke-width:0.5;" width="15" x="516" y="433.0679"/><rect fill="#F5F7FF" height="2" style="stroke:#4054A5;stroke-width:0.5;" width="4" x="514" y="435.0679"/><rect fill="#F5F7FF" height="2" style="stroke:#4054A5;stroke-width:0.5;" width="4" x="514" y="439.0679"/><text fill="#172554" font-family="Arial" font-size="14" lengthAdjust="spacing" textLength="115" x="315" y="463.0339">TelemetryService</text><text fill="#172554" font-family="Arial" font-size="14" lengthAdjust="spacing" textLength="196" x="315" y="482.1018">Processamento de telemetria</text></g><!--entity mqttlistener--><g id="elem_mqttlistener"><rect fill="#F5F7FF" height="68.1358" rx="2.5" ry="2.5" style="stroke:#4054A5;stroke-width:0.5;" width="233" x="30" y="514.0679"/><rect fill="#F5F7FF" height="10" style="stroke:#4054A5;stroke-width:0.5;" width="15" x="243" y="519.0679"/><rect fill="#F5F7FF" height="2" style="stroke:#4054A5;stroke-width:0.5;" width="4" x="241" y="521.0679"/><rect fill="#F5F7FF" height="2" style="stroke:#4054A5;stroke-width:0.5;" width="4" x="241" y="525.0679"/><text fill="#172554" font-family="Arial" font-size="14" lengthAdjust="spacing" textLength="153" x="45" y="549.0339">TelemetryMqttListener</text><text fill="#172554" font-family="Arial" font-size="14" lengthAdjust="spacing" textLength="193" x="45" y="568.1018">Adaptador MQTT de entrada</text></g><!--entity commandadapter--><g id="elem_commandadapter"><rect fill="#F5F7FF" height="68.1358" rx="2.5" ry="2.5" style="stroke:#4054A5;stroke-width:0.5;" width="222" x="307" y="600.0679"/><rect fill="#F5F7FF" height="10" style="stroke:#4054A5;stroke-width:0.5;" width="15" x="509" y="605.0679"/><rect fill="#F5F7FF" height="2" style="stroke:#4054A5;stroke-width:0.5;" width="4" x="507" y="607.0679"/><rect fill="#F5F7FF" height="2" style="stroke:#4054A5;stroke-width:0.5;" width="4" x="507" y="611.0679"/><text fill="#172554" font-family="Arial" font-size="14" lengthAdjust="spacing" textLength="182" x="322" y="635.0339">MqttRunCommandAdapter</text><text fill="#172554" font-family="Arial" font-size="14" lengthAdjust="spacing" textLength="116" x="322" y="654.1018">Publicador MQTT</text></g><!--entity wsadapter--><g id="elem_wsadapter"><rect fill="#F5F7FF" height="68.1358" rx="2.5" ry="2.5" style="stroke:#4054A5;stroke-width:0.5;" width="234" x="301" y="274.0679"/><rect fill="#F5F7FF" height="10" style="stroke:#4054A5;stroke-width:0.5;" width="15" x="515" y="279.0679"/><rect fill="#F5F7FF" height="2" style="stroke:#4054A5;stroke-width:0.5;" width="4" x="513" y="281.0679"/><rect fill="#F5F7FF" height="2" style="stroke:#4054A5;stroke-width:0.5;" width="4" x="513" y="285.0679"/><text fill="#172554" font-family="Arial" font-size="14" lengthAdjust="spacing" textLength="194" x="316" y="309.0339">WebSocketTelemetryAdapter</text><text fill="#172554" font-family="Arial" font-size="14" lengthAdjust="spacing" textLength="149" x="316" y="328.1018">Publicador WebSocket</text></g><!--entity persistence--><g id="elem_persistence"><rect fill="#F5F7FF" height="49.0679" rx="2.5" ry="2.5" style="stroke:#4054A5;stroke-width:0.5;" width="233" x="301.5" y="360.5679"/><rect fill="#F5F7FF" height="10" style="stroke:#4054A5;stroke-width:0.5;" width="15" x="514.5" y="365.5679"/><rect fill="#F5F7FF" height="2" style="stroke:#4054A5;stroke-width:0.5;" width="4" x="512.5" y="367.5679"/><rect fill="#F5F7FF" height="2" style="stroke:#4054A5;stroke-width:0.5;" width="4" x="512.5" y="371.5679"/><text fill="#172554" font-family="Arial" font-size="14" lengthAdjust="spacing" textLength="193" x="316.5" y="395.5339">Adaptadores de persist&#234;ncia</text></g><!--entity commandport--><g id="elem_commandport"><ellipse cx="742.5" cy="599.0679" fill="#FFFFFF" rx="8" ry="8" style="stroke:#475569;stroke-width:0.5;"/><text fill="#334155" font-family="Arial" font-size="14" lengthAdjust="spacing" textLength="160" x="662.5" y="631.0339">RunCommandPublisher</text></g><!--entity telemetryport--><g id="elem_telemetryport"><ellipse cx="742.5" cy="435.0679" fill="#FFFFFF" rx="8" ry="8" style="stroke:#475569;stroke-width:0.5;"/><text fill="#334155" font-family="Arial" font-size="14" lengthAdjust="spacing" textLength="131" x="677" y="467.0339">TelemetryPublisher</text></g><!--entity repositoryport--><g id="elem_repositoryport"><ellipse cx="742.5" cy="477.0679" fill="#FFFFFF" rx="8" ry="8" style="stroke:#475569;stroke-width:0.5;"/><text fill="#334155" font-family="Arial" font-size="14" lengthAdjust="spacing" textLength="218" x="633.5" y="509.0339">RunRepository / MazeRepository</text></g><polygon fill="#475569" points="183.5103,350.8795,192.8792,347.8423,187.2305,347.5388,187.5339,341.8901,183.5103,350.8795" style="stroke:#475569;stroke-width:1.0;"/><path d="M647.2283,137.8852 C555.1372,161.4619 412.7643,204.0361 300,265.0679 C256.5944,288.5605 217.3901,320.4547 187.9745,346.8706 " fill="none" style="stroke:#475569;stroke-width:1.0;"/><text fill="#334155" font-family="Arial" font-size="13" lengthAdjust="spacing" textLength="29" x="403.5" y="165.9649">REST</text><polygon fill="#475569" points="329.9964,519.5992,323.2826,512.3933,325.396,517.6405,320.1488,519.754,329.9964,519.5992" style="stroke:#475569;stroke-width:1.0;"/><path d="M183.9874,419.2082 C213.4961,445.4224 257.0591,481.0798 300,505.0679 C309.4464,510.345 314.1455,512.8507 324.4759,517.2488 " fill="none" style="stroke:#475569;stroke-width:1.0;stroke-dasharray:7.0,7.0;"/><polygon fill="#475569" points="733.2995,600.6948,725.0837,595.2635,728.3682,599.8691,723.7625,603.1536,733.2995,600.6948" style="stroke:#475569;stroke-width:1.0;"/><path d="M506.2731,562.6811 C587.9787,576.362 696.1189,594.4692 727.3819,599.704 " fill="none" style="stroke:#475569;stroke-width:1.0;stroke-dasharray:7.0,7.0;"/><polygon fill="none" points="733.3363,602.878,714.8319,598.6846,716.0167,610.626,733.3363,602.878" style="stroke:#475569;stroke-width:1.0;"/><path d="M529.0842,623.1448 C607.9122,615.3231 687.0277,607.4729 715.4243,604.6553 " fill="none" style="stroke:#475569;stroke-width:1.0;stroke-dasharray:7.0,7.0;"/><polygon fill="#475569" points="640.8502,697.3554,633.2928,691.0399,636.042,695.9838,631.0982,698.733,640.8502,697.3554" style="stroke:#475569;stroke-width:1.0;"/><path d="M529.0842,665.4718 C565.3049,675.8045 599.5984,685.5874 635.0804,695.7095 " fill="none" style="stroke:#475569;stroke-width:1.0;"/><text fill="#334155" font-family="Arial" font-size="13" lengthAdjust="spacing" textLength="36" x="570.5" y="669.9649">MQTT</text><polygon fill="#475569" points="844.0228,726.0679,853.0228,730.0679,849.0228,726.0679,853.0228,722.0679,844.0228,726.0679" style="stroke:#475569;stroke-width:1.0;"/><polygon fill="#475569" points="917.6091,726.0679,908.6091,722.0679,912.6091,726.0679,908.6091,730.0679,917.6091,726.0679" style="stroke:#475569;stroke-width:1.0;"/><path d="M850.0228,726.0679 C874.3155,726.0679 888.0579,726.0679 911.6091,726.0679 " fill="none" style="stroke:#475569;stroke-width:1.0;"/><text fill="#334155" font-family="Arial" font-size="13" lengthAdjust="spacing" textLength="36" x="863" y="721.9649">MQTT</text><polygon fill="#475569" points="176.6535,582.2477,179.826,591.5717,180.0477,585.9192,185.7002,586.1409,176.6535,582.2477" style="stroke:#475569;stroke-width:1.0;"/><path d="M640.8351,731.2664 C548.4923,732.3098 409.8034,724.3124 300,677.0679 C250.4668,655.7555 208.9151,617.144 180.7266,586.6534 " fill="none" style="stroke:#475569;stroke-width:1.0;"/><polygon fill="#475569" points="329.7337,548.0679,320.7337,544.0679,324.7337,548.0679,320.7337,552.0679,329.7337,548.0679" style="stroke:#475569;stroke-width:1.0;"/><path d="M263.3563,548.0679 C285.6118,548.0679 302.5688,548.0679 323.7337,548.0679 " fill="none" style="stroke:#475569;stroke-width:1.0;"/><polygon fill="#475569" points="310.2287,496.1397,300.4386,495.065,305.4653,497.6597,302.8707,502.6864,310.2287,496.1397" style="stroke:#475569;stroke-width:1.0;"/><path d="M254.4006,513.9549 C272.7704,508.0929 286.1463,503.8246 304.5127,497.9637 " fill="none" style="stroke:#475569;stroke-width:1.0;"/><polygon fill="#475569" points="733.2995,481.797,723.6679,479.7399,728.4071,482.8286,725.3184,487.5678,733.2995,481.797" style="stroke:#475569;stroke-width:1.0;"/><path d="M506.2731,529.6661 C587.9787,512.4383 696.1656,489.6268 727.4286,483.0349 " fill="none" style="stroke:#475569;stroke-width:1.0;stroke-dasharray:7.0,7.0;"/><polygon fill="#475569" points="733.3579,479.6135,724.5948,475.1181,728.3657,479.3348,724.149,483.1057,733.3579,479.6135" style="stroke:#475569;stroke-width:1.0;"/><path d="M536.3422,468.6172 C613.7848,472.9396 699.8628,477.744 727.3672,479.2791 " fill="none" style="stroke:#475569;stroke-width:1.0;stroke-dasharray:7.0,7.0;"/><polygon fill="none" points="733.3159,478.8089,716.4858,470.0483,714.5955,481.8985,733.3159,478.8089" style="stroke:#475569;stroke-width:1.0;"/><path d="M506.4525,409.6366 C516.4538,412.6963 526.4733,415.8749 536,419.0679 C583.3495,434.9376 593.076,445.0281 641,459.0679 C674.6984,468.9402 698.2715,473.2187 715.5406,475.9734 " fill="none" style="stroke:#475569;stroke-width:1.0;stroke-dasharray:7.0,7.0;"/><polygon fill="#475569" points="665.4041,223.5448,655.5705,224.0936,660.9553,225.8269,659.2219,231.2117,665.4041,223.5448" style="stroke:#475569;stroke-width:1.0;"/><path d="M515.7662,360.5226 C522.7553,357.6712 529.5742,354.527 536,351.0679 C580.6975,327.0071 591.902,317.1891 623,277.0679 C634.2031,262.6142 627.4925,252.3954 641,240.0679 C648.1646,233.5292 651.2266,230.8175 660.0655,226.2834 " fill="none" style="stroke:#475569;stroke-width:1.0;"/><polygon fill="#475569" points="733.2758,439.1961,723.7962,436.5247,728.3272,439.9113,724.9406,444.4424,733.2758,439.1961" style="stroke:#475569;stroke-width:1.0;"/><path d="M506.1174,516.7157 C516.227,512.8807 526.3633,508.9455 536,505.0679 C583.2657,486.0493 592.4715,474.5835 641,459.0679 C674.4469,448.3742 709.9925,442.5614 727.3375,440.0544 " fill="none" style="stroke:#475569;stroke-width:1.0;stroke-dasharray:7.0,7.0;"/><polygon fill="#475569" points="733.2731,438.6027,724.0316,435.1976,728.2837,438.9285,724.5528,443.1806,733.2731,438.6027" style="stroke:#475569;stroke-width:1.0;"/><path d="M536.0698,452.4419 C542.1332,451.9706 548.1378,451.51 554,451.0679 C623.3056,445.842 701.0969,440.7037 727.2858,438.9936 " fill="none" style="stroke:#475569;stroke-width:1.0;stroke-dasharray:7.0,7.0;"/><polygon fill="none" points="733.4481,437.7493,715.78,430.8329,715.1638,442.8171,733.4481,437.7493" style="stroke:#475569;stroke-width:1.0;"/><path d="M521.8146,342.0896 C526.7433,344.8783 531.5043,347.8677 536,351.0679 C546.2922,358.3943 544.3293,364.9389 554,373.0679 C587.9705,401.6229 599.0952,407.4608 641,422.0679 C674.0326,433.5823 698.1113,435.9324 715.4719,436.825 " fill="none" style="stroke:#475569;stroke-width:1.0;stroke-dasharray:7.0,7.0;"/><polygon fill="#475569" points="651.4219,150.0721,641.8248,152.2847,647.4259,153.0774,646.6333,158.6784,651.4219,150.0721" style="stroke:#475569;stroke-width:1.0;"/><path d="M528.2184,274.0421 C530.8609,272.7553 533.4592,271.4306 536,270.0679 C579.4912,246.7427 593.0318,240.2784 623,201.0679 C635.3323,184.9323 626.6352,173.424 641,159.0679 C644.2216,155.8482 642.9272,156.4606 646.6267,153.6784 " fill="none" style="stroke:#475569;stroke-width:1.0;"/><text fill="#334155" font-family="Arial" font-size="13" lengthAdjust="spacing" textLength="67" x="555" y="196.9649">WebSocket</text><!--SRC=[VLJDZjis4BxhAQRRSzByMDaqA09uDokWG3VOsWPwyMLCZMLYAOv2KjcwRO0-H5-WwA50WPxQD_2Rz4bAKhB-revE8h-PR_w-uHULmQ94KBZdse4joQ76n4cd2Dv9B0nwD2SGN5QiIJkoa2DOLlNXpyCV733BM_U0XX95MmUEmSXYvo2NXeIJh1DxBtM5dggdMRgzZr2NwiK0LLAJsrS4RDoE1u3TOSuFKXUmHMLfWEIqnLgvZBLxZoN1t4XK0xn2SOy5mSy9m9N_BmpNEhzcnGQ-p5vdy-mw86noCktjgzdbxFMLlmsaxTspxFdbYtdowLGfPxZJx3BBfjopP-bidewvFNEQpaRSqlVPR56Sopj-ZxWlq_JLrsFkbozdpzDqn3qtXX_6BXFmiN_I5tknuCtXNrYWd_Cr5RpMIsaTUPLGkK4Z_A0k02qOth0R-jq89IjBSClsGosTyvvNXk_9mEttgvNtXdSi_35wRoAI9CVnNSmh9GK-aXme5gYY2rPLx5Rd4jf6EeUIDQl3tquAXlz-_GsMbGbAkc9sJQpMBZW332kjzRLlXM6boApr_EvRMDmiLqrvPDq9-oMPZrBGMj_yIABT48ATxz3X7-CJQ7nhRHkxASEA5FaLDFkEvywm86kzjBMBbRlMH6BaEXxtPwbkFpZtNHYHZaNaM3a_exRhdj1R6ymRjjBRgjPsIXXuOaVA4dKUUGBXNRq9apaoHXhHs61ZCoNwWJRBC6dNfNYAhBEAZ0_s35bNJtYN22eoDZJxBotQ1hKtf7stetE_MnTzEJ6mtRNgQ_El_3CqTUbo7djqOpZbuyCig68h7PizV0Mt-1Fr5wsSZiUMu5CoAZCpNeX1f0j2uTRwFNwa8lOfPwXjVVZTo4PSszRI- -VeS8Cshe8MKJr-9cpNUaN2xmGN4Y6yxbkfPLF7qSM_6CcH2PuyUHlr3c-Y_fFu__Jfsw6G-z-833iuLeE7V_ai7g8rw-_Z1KabxUcRc4TuLYP0k1yfTtXeikyJVOJr6pIfOJAJpkuKE51PK-1dy12qw_CavbX7uv1ZhDk89juvC0Jh1lcctwhaVm00]--></g></svg>